{
	"asset": {
		"version": "2.0",
		"generator": ""
	},
	"scenes": [
		{
			"nodes": [
				0
			]
		}
	],
	"nodes": [
		{
			"name": "animated_ear",
			"children": [
				1,
				2,
				3
			]
		},
		{
			"name": "Cube",
			"mesh": 0
		},
		{
			"name": "reorient_ears Instance",
			"translation": [
				0.0,
				0.0,
				0.0
			],
			"rotation": [
				0.0,
				-0.7071067690849304,
				0.0,
				-0.7071067690849304
			],
			"scale": [
				1.0,
				1.0,
				-1.0
			],
			"children": [
				4
			]
		},
		{
			"name": "reorient_ears",
			"translation": [
				0.0,
				0.0,
				0.0
			],
			"rotation": [
				0.0,
				-0.7071067690849304,
				0.0,
				-0.7071067690849304
			],
			"scale": [
				1.0,
				1.0,
				1.0
			],
			"children": [
				5
			]
		},
		{
			"name": "right_ear",
			"translation": [
				-0.0002135155809810385,
				0.0,
				-0.030274877324700357
			],
			"rotation": [
				0.0,
				-0.057807642966508868,
				0.0,
				0.9983277320861816
			],
			"scale": [
				1.0,
				1.0,
				1.0
			],
			"children": [
				6
			]
		},
		{
			"name": "right_ear",
			"translation": [
				-0.0002135155809810385,
				0.0,
				-0.030274877324700357
			],
			"rotation": [
				0.0,
				-0.057807642966508868,
				0.0,
				0.9983277320861816
			],
			"scale": [
				1.0,
				1.0,
				1.0
			],
			"children": [
				7
			]
		},
		{
			"name": "the_good_ear.base_pose",
			"mesh": 1,
			"translation": [
				0.0,
				0.0,
				0.0
			],
			"rotation": [
				0.0,
				0.0,
				0.0,
				-1.0
			],
			"scale": [
				100.0,
				100.0,
				100.0
			]
		},
		{
			"name": "the_good_ear.base_pose",
			"mesh": 1,
			"translation": [
				0.0,
				0.0,
				0.0
			],
			"rotation": [
				0.0,
				0.0,
				0.0,
				-1.0
			],
			"scale": [
				100.0,
				100.0,
				100.0
			]
		}
	],
	"meshes": [
		{
			"name": "Cube",
			"primitives": [
				{
					"attributes": {
						"POSITION": 1,
						"NORMAL": 2,
						"TEXCOORD_0": 3
					},
					"indices": 0
				}
			]
		},
		{
			"name": "the_good_ear.base_pose",
			"extras": {
				"targetNames": [
					"the_good_ear.pos_1"
				]
			},
			"primitives": [
				{
					"targets": [
						{
							"POSITION": 8
						}
					],
					"attributes": {
						"POSITION": 5,
						"NORMAL": 6,
						"TEXCOORD_0": 7
					},
					"indices": 4,
					"material": 0
				}
			],
			"weights": [
				0.0
			]
		}
	],
	"accessors": [
		{
			"bufferView": 0,
			"type": "SCALAR",
			"componentType": 5123,
			"count": 612,
			"byteOffset": 0,
			"min": [
				0
			],
			"max": [
				165
			]
		},
		{
			"bufferView": 1,
			"type": "VEC3",
			"componentType": 5126,
			"count": 166,
			"byteOffset": 0,
			"min": [
				-0.029999999329447748,
				-0.029999999329447748,
				-0.029999999329447748
			],
			"max": [
				0.029999999329447748,
				0.029999999329447748,
				0.029999999329447748
			]
		},
		{
			"bufferView": 1,
			"type": "VEC3",
			"componentType": 5126,
			"count": 166,
			"byteOffset": 12,
			"min": [
				-0.9832747578620911,
				-0.9865118861198425,
				-0.9832747578620911
			],
			"max": [
				0.9832747578620911,
				0.9865118861198425,
				0.9832747578620911
			]
		},
		{
			"bufferView": 1,
			"type": "VEC2",
			"componentType": 5126,
			"count": 166,
			"byteOffset": 24,
			"min": [
				0.0,
				0.0
			],
			"max": [
				1.0,
				1.0
			]
		},
		{
			"bufferView": 2,
			"type": "SCALAR",
			"componentType": 5123,
			"count": 4416,
			"byteOffset": 0,
			"min": [
				0
			],
			"max": [
				4415
			]
		},
		{
			"bufferView": 3,
			"type": "VEC3",
			"componentType": 5126,
			"count": 4416,
			"byteOffset": 0,
			"min": [
				-0.00016880000475794077,
				-0.0002632749965414405,
				-0.00015383500431198627
			],
			"max": [
				0.00016880000475794077,
				0.0002632749965414405,
				0.00015383500431198627
			]
		},
		{
			"bufferView": 3,
			"type": "VEC3",
			"componentType": 5126,
			"count": 4416,
			"byteOffset": 12,
			"min": [
				-0.9993076920509338,
				-0.9999697208404541,
				-0.9994619488716126
			],
			"max": [
				0.9986190795898438,
				0.9944379925727844,
				0.6767913103103638
			]
		},
		{
			"bufferView": 3,
			"type": "VEC2",
			"componentType": 5126,
			"count": 4416,
			"byteOffset": 24,
			"min": [
				0.0,
				1.0
			],
			"max": [
				0.0,
				1.0
			]
		},
		{
			"bufferView": 4,
			"type": "VEC3",
			"componentType": 5126,
			"count": 4416,
			"byteOffset": 0,
			"min": [
				-0.000052759642130695286,
				-0.000045155600673751908,
				-0.00028188026044517756
			],
			"max": [
				0.00015485470066778362,
				0.00016271443746518344,
				0.00002358845085836947
			]
		},
		{
			"bufferView": 5,
			"type": "SCALAR",
			"componentType": 5126,
			"count": 2,
			"byteOffset": 0,
			"min": [
				0.0
			],
			"max": [
				3.3333332538604738
			]
		},
		{
			"bufferView": 5,
			"type": "SCALAR",
			"componentType": 5126,
			"count": 2,
			"byteOffset": 8,
			"min": [
				0.0
			],
			"max": [
				1.0
			]
		},
		{
			"bufferView": 6,
			"type": "SCALAR",
			"componentType": 5126,
			"count": 2,
			"byteOffset": 0,
			"min": [
				0.0
			],
			"max": [
				3.3333332538604738
			]
		},
		{
			"bufferView": 6,
			"type": "SCALAR",
			"componentType": 5126,
			"count": 2,
			"byteOffset": 8,
			"min": [
				0.0
			],
			"max": [
				1.0
			]
		}
	],
	"bufferViews": [
		{
			"buffer": 0,
			"byteOffset": 0,
			"byteLength": 1224,
			"target": 34963
		},
		{
			"buffer": 0,
			"byteOffset": 1224,
			"byteLength": 5312,
			"target": 34962,
			"byteStride": 32
		},
		{
			"buffer": 1,
			"byteOffset": 0,
			"byteLength": 8832,
			"target": 34963
		},
		{
			"buffer": 1,
			"byteOffset": 8832,
			"byteLength": 141312,
			"target": 34962,
			"byteStride": 32
		},
		{
			"buffer": 1,
			"byteOffset": 150144,
			"byteLength": 52992,
			"target": 34962
		},
		{
			"buffer": 2,
			"byteOffset": 0,
			"byteLength": 16
		},
		{
			"buffer": 3,
			"byteOffset": 0,
			"byteLength": 16
		}
	],
	"buffers": [
		{
			"uri": "data:application/octet-stream;base64,",
			"byteLength": 6536
		},
		{
			"uri": "data:application/octet-stream;base64,",
			"byteLength": 203136
		},
		{
			"uri": "data:application/octet-stream;base64,",
			"byteLength": 16
		},
		{
			"uri": "data:application/octet-stream;base64,",
			"byteLength": 16
		}
	],
	"materials": [
		{
			"pbrMetallicRoughness": {
				"baseColorFactor": [
					0.5271151661872864,
					0.5271151661872864,
					0.5271151661872864,
					1.0
				],
				"metallicFactor": 0.0,
				"roughnessFactor": 1.0
			},
			"emissiveFactor": [
				0.0,
				0.0,
				0.0
			],
			"alphaMode": "OPAQUE",
			"doubleSided": false,
			"name": "Default"
		}
	],
	"animations": [
		{
			"samplers": [
				{
					"input": 9,
					"interpolation": "LINEAR",
					"output": 10
				},
				{
					"input": 11,
					"interpolation": "LINEAR",
					"output": 12
				}
			],
			"channels": [
				{
					"sampler": 0,
					"target": {
						"node": 6,
						"path": "weights"
					}
				},
				{
					"sampler": 1,
					"target": {
						"node": 7,
						"path": "weights"
					}
				}
			]
		}
	]
}